<?xml version="1.0" standalone="no"?><!DOCTYPE svg PUBLIC "-//W3C//DTD SVG 1.1//EN" "http://www.w3.org/Graphics/SVG/1.1/DTD/svg11.dtd"><svg t="1743599901588" class="icon" viewBox="0 0 1024 1024" version="1.1" xmlns="http://www.w3.org/2000/svg" p-id="46025" xmlns:xlink="http://www.w3.org/1999/xlink" width="200" height="200"><path d="M315.392 682.368c-28.032 10.496-75.392 41.344-75.392 90.112 0 30.848 13.312 50.688 23.936 66.688 8.192 12.288 12.8 19.584 12.8 28.928 0 18.688-20.096 27.52-20.736 27.776a25.5104 25.5104 0 0 0-14.208 33.28 25.6 25.6 0 0 0 23.808 16.128c3.2 0 6.4-0.64 9.472-1.792 19.584-7.808 52.864-32.512 52.864-75.264 0-25.344-11.904-43.136-21.504-57.344-8.576-12.8-15.36-22.912-15.36-38.272 0-21.248 31.36-38.016 42.368-42.24a25.5232 25.5232 0 0 0 14.848-32.896 25.4976 25.4976 0 0 0-32.896-15.104zM543.488 682.368c-28.032 10.496-75.52 41.344-75.52 90.112 0 30.848 13.312 50.688 23.936 66.688 8.192 12.288 12.8 19.584 12.8 28.928 0 18.688-20.096 27.52-20.736 27.776a25.5104 25.5104 0 0 0-14.208 33.28 25.6 25.6 0 0 0 23.808 16.128c3.2 0 6.4-0.64 9.472-1.792 19.584-7.808 52.864-32.512 52.864-75.264 0-25.344-11.904-43.136-21.504-57.344-8.576-12.8-15.36-22.912-15.36-38.272 0-21.248 31.232-38.016 42.24-42.24a25.6896 25.6896 0 0 0 14.976-32.896 25.2544 25.2544 0 0 0-32.768-15.104zM771.712 682.368c-28.032 10.496-75.392 41.344-75.392 90.112 0 30.848 13.312 50.688 23.936 66.688 8.192 12.288 12.8 19.584 12.8 28.928 0 18.688-20.096 27.52-20.736 27.776a25.5104 25.5104 0 0 0-14.208 33.28 25.6 25.6 0 0 0 23.808 16.128c3.2 0 6.4-0.64 9.472-1.792 19.584-7.808 52.864-32.512 52.864-75.264 0-25.344-11.904-43.136-21.504-57.344-8.576-12.8-15.36-22.912-15.36-38.272 0-21.248 31.36-38.016 42.368-42.24a25.5232 25.5232 0 0 0 14.848-32.896 25.4976 25.4976 0 0 0-32.896-15.104zM830.976 191.232H190.08a50.304 50.304 0 0 0-50.304 50.304v238.72a50.304 50.304 0 0 0 50.304 50.304h24.704v25.088c0 41.856 34.048 75.904 75.904 75.904h439.808c41.856 0 75.904-34.048 75.904-75.904v-25.088h24.704a50.304 50.304 0 0 0 50.304-50.304V241.408a50.4704 50.4704 0 0 0-50.432-50.176zM755.072 555.52c0 13.568-11.008 24.704-24.704 24.704H290.688c-13.568 0-24.704-11.008-24.704-24.704v-25.088h489.088v25.088z m63.36-251.264h-125.696v-62.848h125.696v62.848z" fill="#333333" p-id="46026"></path></svg>