<?xml version="1.0" standalone="no"?><!DOCTYPE svg PUBLIC "-//W3C//DTD SVG 1.1//EN" "http://www.w3.org/Graphics/SVG/1.1/DTD/svg11.dtd"><svg t="1743599917719" class="icon" viewBox="0 0 1024 1024" version="1.1" xmlns="http://www.w3.org/2000/svg" p-id="47154" xmlns:xlink="http://www.w3.org/1999/xlink" width="200" height="200"><path d="M406.051993 364.141464c45.668109-63.117526 71.880097-125.915781 84.618213-162.078399 5.355985-15.208377-5.962805-31.140231-22.088065-31.140231H308.606637c-10.848069 0-20.292162 7.444553-22.76754 18.006096C270.154883 255.815293 173.086104 398.61358 140.984988 513.938142 102.181217 653.343145 172.376952 816.83166 183.278233 888.802832c1.740644 11.490705 11.536754 20.027126 23.15742 20.027125h78.764901c14.588253 0 25.647123-13.198603 23.033599-27.551496-3.990894-21.923312-12.631692-55.209416-31.299866-93.514837-40.506553-83.117023-111.731734-186.911994-100.284008-223.164662C186.092325 534.704095 317.935096 485.926158 406.051993 364.141464z" p-id="47155"></path><path d="M134.901433 793.036721c-20.276812-106.285698-22.784936-231.768621-7.454786-296.52753 25.284873-106.814748 101.136422-224.437655 116.007107-297.631678 2.936889-14.458293-8.206916-27.953655-22.959921-27.953655H100.29731c-12.925381 0-23.403013 10.477632-23.403012 23.403012v691.100075c0 12.925381 10.477632 23.403013 23.403012 23.403012h34.579563c15.281031 0 26.430976-14.393825 22.674419-29.206182-6.028297-23.766286-16.160051-52.569286-22.649859-86.587054zM617.948007 364.141464c-45.668109-63.117526-71.880097-125.915781-84.618213-162.078399-5.355985-15.208377 5.962805-31.140231 22.088065-31.140231h159.975504c10.848069 0 20.292162 7.444553 22.76754 18.006096C753.845117 255.815293 850.913896 398.61358 883.015012 513.938142c38.802748 139.405003-31.391964 302.893518-42.293245 374.86469-1.740644 11.490705-11.536754 20.027126-23.15742 20.027125h-78.764901c-14.588253 0-25.647123-13.198603-23.033599-27.551496 3.990894-21.923312 12.631692-55.209416 31.299866-93.514837 40.506553-83.117023 111.731734-186.911994 100.284008-223.164662-9.442046-29.894867-141.28584-78.672804-229.401714-200.457498z" p-id="47156"></path><path d="M889.098567 793.036721c20.276812-106.285698 22.784936-231.768621 7.454786-296.52753-25.284873-106.814748-101.136422-224.437655-116.007107-297.631678-2.936889-14.458293 8.206916-27.953655 22.960944-27.953655h120.196523c12.925381 0 23.403013 10.477632 23.403013 23.403012v691.100075c0 12.925381-10.477632 23.403013-23.403013 23.403012H889.12415c-15.281031 0-26.430976-14.393825-22.674419-29.206182 6.02625-23.766286 16.158005-52.569286 22.648836-86.587054zM926.123832 157.130713H97.874121c-11.539824 0-20.980847-9.441023-20.980847-20.980847s9.441023-20.980847 20.980847-20.980847h828.249711c11.539824 0 20.980847 9.441023 20.980847 20.980847 0.001023 11.538801-9.441023 20.980847-20.980847 20.980847z" p-id="47157"></path></svg>