<?xml version="1.0" standalone="no"?><!DOCTYPE svg PUBLIC "-//W3C//DTD SVG 1.1//EN" "http://www.w3.org/Graphics/SVG/1.1/DTD/svg11.dtd"><svg t="1744011046918" class="icon" viewBox="0 0 1024 1024" version="1.1" xmlns="http://www.w3.org/2000/svg" p-id="3712" xmlns:xlink="http://www.w3.org/1999/xlink" width="200" height="200"><path d="M512 17.066667C419.271111 17.066667 124.586667 369.777778 124.586667 609.848889c0 218.453333 174.08 397.084444 387.413333 397.084444 213.333333 0 387.413333-178.631111 387.413333-397.084444C899.413333 369.777778 604.728889 17.066667 512 17.066667z m313.457778 592.782222c0 177.493333-140.515556 321.991111-313.457778 321.991111s-313.457778-144.497778-313.457778-321.991111C198.542222 392.533333 459.093333 117.191111 512 93.297778c52.906667 23.893333 313.457778 299.235556 313.457778 516.551111z" fill="#B7B7B7" p-id="3713"></path><path d="M383.431111 621.226667c-5.12-13.653333-17.635556-23.893333-31.857778-26.168889s-29.582222 3.413333-38.684444 14.791111c-9.102222 11.377778-11.377778 27.306667-6.257778 40.96a327.111111 327.111111 0 0 0 192.284445 191.146667 41.415111 41.415111 0 0 0 54.613333-32.426667 40.96 40.96 0 0 0-26.737778-46.08c-65.991111-23.893333-117.76-76.231111-143.36-142.222222z" fill="#B7B7B7" p-id="3714"></path></svg>