<?xml version="1.0" standalone="no"?><!DOCTYPE svg PUBLIC "-//W3C//DTD SVG 1.1//EN" "http://www.w3.org/Graphics/SVG/1.1/DTD/svg11.dtd"><svg t="1743600083428" class="icon" viewBox="0 0 1024 1024" version="1.1" xmlns="http://www.w3.org/2000/svg" p-id="49600" xmlns:xlink="http://www.w3.org/1999/xlink" width="200" height="200"><path d="M614.4 832H416v6.4a32 32 0 1 1-64 0v-6.4h-38.4a32 32 0 0 1-32-32V473.6h460.8v326.4a32 32 0 0 1-32 32h-32v6.4a32 32 0 1 1-64 0v-6.4zM313.6 153.6h396.8a32 32 0 0 1 32 32v243.2H281.6V185.6a32 32 0 0 1 32-32z m64 134.4a19.2 19.2 0 0 0-19.2 19.2v51.2a19.2 19.2 0 0 0 19.2 19.2h6.4a19.2 19.2 0 0 0 19.2-19.2v-51.2a19.2 19.2 0 0 0-19.2-19.2h-6.4z m0 249.6a19.2 19.2 0 0 0-19.2 19.2v89.6a19.2 19.2 0 0 0 19.2 19.2h6.4a19.2 19.2 0 0 0 19.2-19.2V556.8a19.2 19.2 0 0 0-19.2-19.2h-6.4z" fill="#5C646F" p-id="49601"></path></svg>