<?xml version="1.0" standalone="no"?><!DOCTYPE svg PUBLIC "-//W3C//DTD SVG 1.1//EN" "http://www.w3.org/Graphics/SVG/1.1/DTD/svg11.dtd"><svg t="1744011032197" class="icon" viewBox="0 0 1024 1024" version="1.1" xmlns="http://www.w3.org/2000/svg" p-id="2689" xmlns:xlink="http://www.w3.org/1999/xlink" width="200" height="200"><path d="M615.622 589.014V165.222c0-17.673-14.327-32-32-32H414.9c-17.673 0-32 14.327-32 32v425.62c-40.723 34.43-64.584 85.204-64.584 138.962 0 100.355 81.645 182 182 182s182-81.645 182-182c-0.001-54.925-24.643-106.364-66.694-140.79z m-115.307 258.79c-65.065 0-118-52.935-118-118 0-38.593 19.005-74.832 50.839-96.941A32.003 32.003 0 0 0 446.9 606.58V197.222h104.722v407.859a32 32 0 0 0 14.202 26.594c32.868 21.998 52.491 58.682 52.491 98.129 0 65.065-52.934 118-118 118z" fill="" p-id="2690"></path><path d="M516.315 670.423V466.785c0-8.836-7.164-16-16-16s-16 7.164-16 16v203.638c-26.765 7.069-46.5 31.438-46.5 60.424 0 34.518 27.982 62.5 62.5 62.5s62.5-27.982 62.5-62.5c0-28.986-19.735-53.355-46.5-60.424z" fill="" p-id="2691"></path></svg>