<?xml version="1.0" standalone="no"?><!DOCTYPE svg PUBLIC "-//W3C//DTD SVG 1.1//EN" "http://www.w3.org/Graphics/SVG/1.1/DTD/svg11.dtd"><svg t="1743150907621" class="icon" viewBox="0 0 1024 1024" version="1.1" xmlns="http://www.w3.org/2000/svg" p-id="12289" xmlns:xlink="http://www.w3.org/1999/xlink" width="200" height="200"><path d="M512.099 63.254c-247.304 0-448.5 201.196-448.5 448.5 0 247.3 201.196 448.496 448.5 448.496s448.5-201.196 448.5-448.496c0-247.304-201.195-448.5-448.5-448.5z m0 878.262c-236.973 0-429.766-192.788-429.766-429.762S275.126 81.989 512.099 81.989c236.969 0 429.766 192.793 429.766 429.766S749.068 941.516 512.099 941.516z" fill="#78f180" p-id="12290"></path><path d="M550.232 256.63c-5.098-11.102-9.489-18.964-13.188-23.595-3.708-4.622-9.261-7.167-16.656-7.635-8.793-0.455-15.389 1.734-19.78 6.592-4.403 4.858-9.368 13.771-14.921 26.719L275.402 721.624c-0.935 3.232-1.283 6.939-1.043 11.102 0.228 4.167 3.124 7.399 8.673 9.72 5.553 2.309 10.291 1.841 14.231-1.39 3.922-3.24 7.742-8.794 11.45-16.656l65.236-138.11h279.693l58.992 135.334c3.695 9.248 7.287 15.844 10.755 19.78 3.472 3.927 8.557 4.858 15.269 2.776 6.704-2.081 10.411-5.205 11.106-9.368 0.695-4.167-1.043-11.574-5.214-22.209L550.232 256.63z m-164.06 298.54l112.704-245.098 9.021-19.437c4.618-11.102 8.09-16.883 10.411-17.35 2.777 0 6.472 5.325 11.103 15.964l6.939 17.351 103.23 248.57H386.172z" fill="#78f180" p-id="12291"></path></svg>