<?xml version="1.0" standalone="no"?><!DOCTYPE svg PUBLIC "-//W3C//DTD SVG 1.1//EN" "http://www.w3.org/Graphics/SVG/1.1/DTD/svg11.dtd"><svg t="1743150886342" class="icon" viewBox="0 0 1024 1024" version="1.1" xmlns="http://www.w3.org/2000/svg" p-id="11986" xmlns:xlink="http://www.w3.org/1999/xlink" width="200" height="200"><path d="M512.099 63.252c-247.304 0-448.5 201.196-448.5 448.496s201.196 448.504 448.5 448.504 448.5-201.205 448.5-448.504-201.195-448.496-448.5-448.496z m0 878.266c-236.973 0-429.766-192.797-429.766-429.77S275.126 81.986 512.099 81.986c236.969 0 429.766 192.788 429.766 429.762s-192.797 429.77-429.766 429.77z" fill="#1296db" p-id="11987"></path><path d="M737.975 554.36c-2.071-7.724-10.012-12.306-17.733-10.236l-84.078 22.536-95.107-54.91 95.107-54.909 84.078 22.536a14.47 14.47 0 0 0 3.757 0.498c6.392-0.002 12.242-4.268 13.976-10.735 2.07-7.723-2.513-15.662-10.236-17.733l-56.113-15.039 58.883-33.996c6.926-3.998 9.298-12.854 5.3-19.779-3.998-6.925-12.853-9.298-19.779-5.299l-58.883 33.996 15.032-56.115c2.07-7.724-2.516-15.663-10.239-17.733-7.724-2.069-15.664 2.516-17.733 10.239l-22.524 84.083-95.105 54.909v-103.09l58.417-58.416c5.654-5.654 5.654-14.822 0-20.476s-14.822-5.654-20.476 0l-37.941 37.942v-63.087c0-7.997-6.482-14.479-14.479-14.479s-14.479 6.482-14.479 14.479v63.086l-37.941-37.941c-5.654-5.654-14.822-5.654-20.476 0s-5.654 14.822 0 20.476l58.417 58.417v103.087l-95.097-54.904-22.533-84.087c-2.07-7.723-10.009-12.307-17.732-10.238-7.724 2.071-12.308 10.009-10.238 17.733l15.037 56.117-58.888-34c-6.926-3.998-15.78-1.625-19.779 5.299-3.998 6.926-1.625 15.781 5.3 19.779l58.888 33.998-56.116 15.037c-7.724 2.071-12.308 10.009-10.239 17.733 1.735 6.469 7.583 10.735 13.977 10.735 1.24 0 2.502-0.161 3.756-0.497l84.088-22.531 95.098 54.904-95.097 54.905-84.088-22.53c-7.723-2.07-15.662 2.514-17.733 10.237-2.07 7.724 2.514 15.663 10.239 17.733l56.116 15.036-58.887 34c-6.926 3.997-9.298 12.852-5.3 19.778 2.682 4.645 7.548 7.242 12.553 7.242 2.455 0 4.945-0.626 7.225-1.943l58.889-33.999-15.037 56.117c-2.07 7.723 2.514 15.662 10.237 17.732 1.225 0.329 2.489 0.496 3.756 0.497 6.392 0 12.243-4.266 13.977-10.734l22.532-84.087 95.096-54.904v103.096l-58.416 58.409c-5.654 5.654-5.656 14.821-0.002 20.475 5.654 5.656 14.822 5.656 20.475 0.002l37.943-37.936v63.08c0 7.997 6.482 14.479 14.479 14.479 7.996 0 14.479-6.482 14.479-14.479v-63.081l37.942 37.937a14.433 14.433 0 0 0 10.237 4.24c3.706 0 7.412-1.415 10.239-4.242 5.654-5.654 5.653-14.821-0.001-20.476l-58.417-58.408V536.826l95.106 54.909 22.524 84.082c1.733 6.469 7.583 10.736 13.976 10.736 1.24 0 2.501-0.16 3.756-0.497 7.724-2.07 12.309-10.008 10.239-17.733l-15.032-56.114 58.884 33.996a14.423 14.423 0 0 0 7.225 1.943c5.004 0 9.871-2.597 12.553-7.242 3.998-6.925 1.625-15.78-5.299-19.779l-58.883-33.997 56.111-15.038c7.724-2.07 12.306-10.009 10.237-17.732z" fill="#1296db" p-id="11988"></path></svg>