<?xml version="1.0" standalone="no"?><!DOCTYPE svg PUBLIC "-//W3C//DTD SVG 1.1//EN" "http://www.w3.org/Graphics/SVG/1.1/DTD/svg11.dtd"><svg t="1743150800813" class="icon" viewBox="0 0 1024 1024" version="1.1" xmlns="http://www.w3.org/2000/svg" p-id="10217" xmlns:xlink="http://www.w3.org/1999/xlink" width="200" height="200"><path d="M512.102 63.252C264.797 63.252 63.6 264.449 63.6 511.754c0 247.301 201.197 448.498 448.502 448.498 247.301 0 448.498-201.197 448.498-448.498-0.001-247.305-201.197-448.502-448.498-448.502z m0 878.266c-236.974 0-429.768-192.789-429.768-429.764S275.127 81.986 512.102 81.986 941.865 274.78 941.865 511.754 749.076 941.518 512.102 941.518z" fill="#707070" p-id="10218"></path><path d="M335.037 554.952c1.201 0.603 2.402 0.603 3.609 0.603 7.217 0 13.228-5.412 15.032-12.631 3.608-16.238 9.625-31.27 18.043-45.705l1.804-2.401c2.401-6.017 6.614-14.435 12.63-25.864 6.01-11.423 20.445-35.477 43.298-72.161 22.853-36.684 48.711-74.575 76.977-113.661 8.418 11.423 16.239 22.853 24.055 34.276 3.005 4.212 7.217 6.614 12.63 6.614 3.005 0 6.01-1.201 8.418-3.005 7.217-4.81 9.021-14.435 4.212-21.049a1361.311 1361.311 0 0 0-36.087-52.319s-0.597-0.604-1.201-1.201h-0.603v-0.603l-3.005-2.408h-0.603v-0.598h-1.2l-0.603-0.603h-1.201l-0.603-0.603H503.43l-0.602 0.603h-1.804v0.603h-1.2c0 0.598 0 0.598-0.604 0.598l-3.005 2.408-0.603 0.603-1.2 1.201c-30.071 40.293-57.135 79.981-81.787 117.872-24.657 37.885-40.293 64.346-48.113 78.781-7.821 14.429-13.831 26.456-18.641 36.081-10.222 17.44-18.043 36.08-22.255 55.928-1.812 9.023 3.6 16.837 11.421 18.641zM668.198 299.969L280.31 687.857c-12.63 14.435 7.821 36.087 22.25 21.652l387.291-387.888c15.031-13.233-6.614-34.879-21.653-21.652zM667.601 479.78l-3.609-6.614c-9.625-16.836-36.684-2.408-27.065 15.032 1.805 3.011 3.609 5.413 4.212 7.217l1.2 1.804c14.435 24.658 21.652 51.119 21.652 79.384v5.414c-1.804 21.646-19.848 38.488-41.493 38.488-21.652 0-40.293-17.44-40.896-39.092v-2.402c0-7.82-6.614-15.038-15.636-15.038-9.022 0-15.636 7.218-15.636 15.038v2.402c-0.603 10.222-4.809 19.244-12.63 26.462-9.022 8.418-19.244 12.63-30.667 12.63-9.022 0-18.044-3.005-25.864-8.418-15.032-11.43-34.276 13.83-17.44 25.254 13.234 9.021 27.662 13.83 43.304 13.83 19.842 0 37.281-6.612 51.715-20.444 2.407-2.408 4.81-4.81 6.614-7.82 14.435 18.646 33.679 28.264 57.135 28.264 9.015 0 17.439-1.2 25.255-4.206-7.814 15.032-17.44 28.864-30.07 40.89-30.668 30.674-67.352 45.706-110.649 45.706-31.875 0-61.341-9.021-87.206-26.462-16.836-11.423-34.276 14.435-17.44 25.864 31.874 21.049 66.754 31.272 104.645 31.272 51.715 0 96.22-18.044 132.904-54.728 34.88-34.881 52.918-76.977 54.721-126.291v-4.809h0.002V576.603c0-34.283-9.021-66.753-26.462-96.221l-0.596-0.602z" fill="#707070" p-id="10219"></path></svg>