<?xml version="1.0" standalone="no"?><!DOCTYPE svg PUBLIC "-//W3C//DTD SVG 1.1//EN" "http://www.w3.org/Graphics/SVG/1.1/DTD/svg11.dtd"><svg t="1743150850399" class="icon" viewBox="0 0 1024 1024" version="1.1" xmlns="http://www.w3.org/2000/svg" p-id="11491" xmlns:xlink="http://www.w3.org/1999/xlink" width="200" height="200"><path d="M512.097 63.25c-247.301 0-448.498 201.197-448.498 448.498 0 247.302 201.197 448.507 448.498 448.507 247.306 0 448.502-201.206 448.502-448.507 0-247.301-201.196-448.498-448.502-448.498z m0 878.271c-236.974 0-429.763-192.798-429.763-429.773 0-236.974 192.789-429.764 429.763-429.764s429.768 192.789 429.768 429.764c0 236.975-192.794 429.773-429.768 429.773z" fill="#d81e06" p-id="11492"></path><path d="M512.1 395.217c-64.243 0-116.535 52.275-116.535 116.535 0 64.244 52.291 116.535 116.535 116.535s116.534-52.291 116.534-116.535c-0.001-64.26-52.29-116.535-116.534-116.535z m0 199.774c-45.898 0-83.24-37.34-83.24-83.238 0-45.899 37.342-83.24 83.24-83.24 45.899 0 83.239 37.341 83.239 83.24-0.001 45.898-37.341 83.238-83.239 83.238zM512.1 642.705c-9.206 0-16.648 7.441-16.648 16.647v102.117c0 9.206 7.442 16.648 16.648 16.648 9.207 0 16.648-7.443 16.648-16.648V659.352c0-9.207-7.441-16.647-16.648-16.647zM512.1 380.8c9.207 0 16.648-7.459 16.648-16.648V262.035c0-9.19-7.441-16.648-16.648-16.648-9.206 0-16.648 7.442-16.648 16.648v102.117c0 9.189 7.442 16.648 16.648 16.648zM628.234 604.347c-6.508-6.509-17.03-6.509-23.539 0-6.51 6.51-6.51 17.031 0 23.54l72.218 72.201a16.604 16.604 0 0 0 11.77 4.879c4.262 0 8.523-1.632 11.77-4.879 6.509-6.51 6.509-17.031 0-23.539l-72.219-72.202zM395.982 419.14a16.601 16.601 0 0 0 11.769 4.877c4.262 0 8.524-1.631 11.77-4.877 6.51-6.508 6.51-17.031 0-23.54l-72.218-72.202c-6.51-6.492-17.047-6.492-23.54 0-6.51 6.511-6.51 17.031 0 23.54l72.219 72.202zM761.816 495.105H659.7c-9.206 0-16.648 7.458-16.648 16.648 0 9.189 7.442 16.647 16.648 16.647h102.116c9.207 0 16.649-7.458 16.649-16.647 0-9.191-7.442-16.648-16.649-16.648zM381.148 511.753c0-9.19-7.442-16.648-16.647-16.648H262.382c-9.206 0-16.648 7.442-16.648 16.648 0 9.189 7.442 16.647 16.648 16.647H364.5c9.206 0 16.648-7.458 16.648-16.647zM616.465 424.035c4.261 0 8.523-1.632 11.769-4.878l72.219-72.219c6.509-6.508 6.509-17.029 0-23.54-6.51-6.51-17.048-6.492-23.54 0l-72.218 72.219c-6.51 6.509-6.51 17.031 0 23.54a16.6 16.6 0 0 0 11.77 4.878zM395.982 604.347l-72.219 72.202c-6.51 6.508-6.51 17.03 0 23.539a16.604 16.604 0 0 0 11.77 4.879c4.262 0 8.523-1.632 11.77-4.879l72.218-72.201c6.51-6.508 6.51-17.03 0-23.54-6.508-6.509-17.031-6.509-23.539 0z" fill="#d81e06" p-id="11493"></path></svg>