<?xml version="1.0" standalone="no"?><!DOCTYPE svg PUBLIC "-//W3C//DTD SVG 1.1//EN" "http://www.w3.org/Graphics/SVG/1.1/DTD/svg11.dtd"><svg t="1743151352657" class="icon" viewBox="0 0 1024 1024" version="1.1" xmlns="http://www.w3.org/2000/svg" p-id="12592" xmlns:xlink="http://www.w3.org/1999/xlink" width="200" height="200"><path d="M1024 512V197.818182A81.454545 81.454545 0 0 0 942.545455 116.363636h-861.09091A81.454545 81.454545 0 0 0 0 197.818182v395.636363A81.454545 81.454545 0 0 0 81.454545 674.909091h861.09091a81.454545 81.454545 0 0 0 81.454545-81.454546v-79.825454V512zM81.454545 186.181818h861.09091a11.869091 11.869091 0 0 1 11.636363 11.636364v279.272727H69.818182v-279.272727a11.869091 11.869091 0 0 1 11.636363-11.636364z m861.09091 418.909091h-861.09091a11.869091 11.869091 0 0 1-11.636363-11.636364v-46.545454h884.363636v46.545454a11.869091 11.869091 0 0 1-11.636363 11.636364z" p-id="12593" fill="#515151"></path><path d="M756.363636 322.327273h116.363637a34.909091 34.909091 0 0 0 0-69.818182h-116.363637a34.909091 34.909091 0 0 0 0 69.818182zM116.363636 721.454545a34.909091 34.909091 0 0 0-34.909091 34.909091v116.363637a34.909091 34.909091 0 0 0 69.818182 0v-116.363637A34.909091 34.909091 0 0 0 116.363636 721.454545zM314.181818 721.454545a34.909091 34.909091 0 0 0-34.909091 34.909091v116.363637a34.909091 34.909091 0 0 0 69.818182 0v-116.363637a34.909091 34.909091 0 0 0-34.909091-34.909091zM512 721.454545a34.909091 34.909091 0 0 0-34.909091 34.909091v116.363637a34.909091 34.909091 0 0 0 69.818182 0v-116.363637A34.909091 34.909091 0 0 0 512 721.454545zM709.818182 721.454545a34.909091 34.909091 0 0 0-34.909091 34.909091v116.363637a34.909091 34.909091 0 0 0 69.818182 0v-116.363637a34.909091 34.909091 0 0 0-34.909091-34.909091zM907.636364 721.454545a34.909091 34.909091 0 0 0-34.909091 34.909091v116.363637a34.909091 34.909091 0 0 0 69.818182 0v-116.363637A34.909091 34.909091 0 0 0 907.636364 721.454545z" p-id="12594" fill="#515151"></path></svg>