<?xml version="1.0" standalone="no"?><!DOCTYPE svg PUBLIC "-//W3C//DTD SVG 1.1//EN" "http://www.w3.org/Graphics/SVG/1.1/DTD/svg11.dtd"><svg t="1744117004630" class="icon" viewBox="0 0 1024 1024" version="1.1" xmlns="http://www.w3.org/2000/svg" p-id="2531" xmlns:xlink="http://www.w3.org/1999/xlink" width="200" height="200"><path d="M853.333 113.778H170.667c-48.356 0-85.334 36.978-85.334 85.333V824.89c0 48.355 36.978 85.333 85.334 85.333h56.889c17.066 0 28.444-11.378 28.444-28.444v-28.445 14.223c0-8.534 5.689-14.223 14.222-14.223h483.556c8.533 0 14.222 5.69 14.222 14.223v14.222c0 17.066 11.378 28.444 28.444 28.444h56.89c48.355 0 85.333-36.978 85.333-85.333V199.11c0-48.355-36.978-85.333-85.334-85.333zM483.556 782.222c0 8.534-5.69 14.222-14.223 14.222H256c-2.844-71.11-19.911-162.133-45.511-221.866-2.845-5.69 0-8.534 0-11.378 0-2.844 2.844-5.689 8.533-8.533 54.045-19.911 91.022-71.111 93.867-130.845V170.667v14.222c0-8.533 5.689-14.222 14.222-14.222h142.222c8.534 0 14.223 5.689 14.223 14.222v597.333zM813.51 574.578C787.911 634.31 773.69 725.333 768 796.444H554.667c-8.534 0-14.223-5.688-14.223-14.222V184.89c0-8.533 5.69-14.222 14.223-14.222h142.222c8.533 0 14.222 5.689 14.222 14.222v238.933c2.845 59.734 39.822 110.934 93.867 130.845 5.689 2.844 5.689 5.689 8.533 8.533 0 2.844 2.845 5.689 0 11.378z" p-id="2532" fill="#515151"></path></svg>