<?xml version="1.0" standalone="no"?><!DOCTYPE svg PUBLIC "-//W3C//DTD SVG 1.1//EN" "http://www.w3.org/Graphics/SVG/1.1/DTD/svg11.dtd"><svg t="1744117048383" class="icon" viewBox="0 0 1024 1024" version="1.1" xmlns="http://www.w3.org/2000/svg" p-id="4585" xmlns:xlink="http://www.w3.org/1999/xlink" width="200" height="200"><path d="M651.377778 864.711111c0-5.688889-5.688889-11.377778-11.377778-11.377778h-253.155556c-5.688889 0-11.377778 5.688889-14.222222 11.377778v17.066667c0 17.066667-11.377778 28.444444-28.444444 28.444444H170.666667c-48.355556 0-85.333333-36.977778-85.333334-85.333333V199.111111c0-48.355556 36.977778-85.333333 85.333334-85.333333H853.333333c48.355556 0 85.333333 36.977778 85.333334 85.333333v625.777778c0 48.355556-36.977778 85.333333-85.333334 85.333333h-173.511111c-17.066667 0-28.444444-11.377778-28.444444-28.444444v-17.066667z m0-82.488889v-264.533333-2.844445c0-5.688889-2.844444-11.377778-5.688889-17.066666-48.355556-76.8-73.955556-164.977778-76.8-253.155556V182.044444c0-5.688889-5.688889-11.377778-14.222222-11.377777s-14.222222 5.688889-14.222223 14.222222v597.333333c0 8.533333 5.688889 14.222222 14.222223 14.222222h82.488889c8.533333 0 14.222222-5.688889 14.222222-14.222222zM568.888889 182.044444V170.666667v11.377777zM455.111111 170.666667v8.533333V170.666667z m0 14.222222v62.577778c-2.844444 88.177778-28.444444 176.355556-76.8 253.155555-2.844444 5.688889-5.688889 11.377778-5.688889 17.066667v267.377778c0 5.688889 5.688889 11.377778 11.377778 14.222222h85.333333c8.533333 0 14.222222-5.688889 14.222223-14.222222v-597.333334c0-11.377778-5.688889-17.066667-14.222223-17.066666s-14.222222 5.688889-14.222222 14.222222z" p-id="4586" fill="#515151"></path></svg>