<?xml version="1.0" standalone="no"?><!DOCTYPE svg PUBLIC "-//W3C//DTD SVG 1.1//EN" "http://www.w3.org/Graphics/SVG/1.1/DTD/svg11.dtd"><svg t="1741491697433" class="icon" viewBox="0 0 1024 1024" version="1.1" xmlns="http://www.w3.org/2000/svg" p-id="4826" xmlns:xlink="http://www.w3.org/1999/xlink" width="200" height="200"><path d="M835.2 128H146.133333a17.792 17.792 0 0 0-12.885333 5.717333A19.029333 19.029333 0 0 0 128 147.2v706.730667a20.394667 20.394667 0 0 0 4.224 13.056c5.845333 7.850667 13.141333 14.421333 21.504 19.285333a68.565333 68.565333 0 0 0 55.381333 6.698667c9.173333-2.773333 17.706667-7.466667 25.088-13.738667a33.706667 33.706667 0 0 1 26.112-7.893333 35.754667 35.754667 0 0 1 23.893334 13.952c2.986667 3.968 7.381333 6.613333 12.245333 7.253333 2.56 0.341333 5.162667 0 7.424-0.725333a18.346667 18.346667 0 0 0 10.752-6.613334 19.498667 19.498667 0 0 0 4.138667-12.245333V167.210667h343.765333v705.493333c0 9.514667 6.4 17.322667 14.933333 18.944a17.408 17.408 0 0 0 19.754667-6.570667 34.346667 34.346667 0 0 1 50.005333-6.058666 69.205333 69.205333 0 0 0 80.512 7.125333c8.234667-4.949333 15.530667-11.52 21.376-19.370667a19.84 19.84 0 0 0 4.224-13.056V147.2a19.456 19.456 0 0 0-5.248-13.44 18.176 18.176 0 0 0-12.885333-5.76zM184.96 856.448a34.730667 34.730667 0 0 1-20.053333-9.557333V167.210667H204.8v685.653333a33.152 33.152 0 0 1-19.84 3.584z m96.810667-19.797333a70.314667 70.314667 0 0 0-39.893334-3.328V167.210667h39.893334v669.44z m434.944-4.352c-5.888 0.682667-11.690667 2.133333-17.237334 4.352V167.210667h39.850667v666.112a67.498667 67.498667 0 0 0-22.613333-1.024z m79.530666 24.149333a33.450667 33.450667 0 0 1-19.925333-3.712V167.210667h39.893333v679.68a33.621333 33.621333 0 0 1-19.968 9.557333z" fill="#999999" p-id="4827"></path></svg>