<?xml version="1.0" standalone="no"?><!DOCTYPE svg PUBLIC "-//W3C//DTD SVG 1.1//EN" "http://www.w3.org/Graphics/SVG/1.1/DTD/svg11.dtd"><svg t="1743417411521" class="icon" viewBox="0 0 1024 1024" version="1.1" xmlns="http://www.w3.org/2000/svg" p-id="8279" xmlns:xlink="http://www.w3.org/1999/xlink" width="200" height="200"><path d="M711.3728 697.856c173.568-11.4688 309.248-42.6496 309.248-95.2832a38.8608 38.8608 0 0 0-4.352-17.5104c-0.3584-0.7168-1.1264-1.3824-1.536-2.0992l0.3584-0.2048L686.3872 50.2272c-4.9664-17.6128-27.648-31.1296-61.6448-39.0656C595.3536 4.2496 555.4176 0 512 0c-43.4176 0-83.3536 4.2496-112.7424 11.1616-34.048 7.936-56.6784 21.504-61.696 39.0656L10.3936 580.3008l0.1536 0.0512c-0.2048 0.3584-0.512 0.6144-0.768 0.9728a39.8336 39.8336 0 0 0-6.4 21.248c0 52.6848 135.3216 83.8144 308.6336 95.2832 53.1456 3.584 110.0288 5.2224 167.1168 5.7856v163.4816c-118.4256 3.7376-209.7664 27.4432-209.7664 56.2176v43.8784C269.3632 998.5536 378.0096 1024 512 1024s242.6368-25.4464 242.6368-56.832v-43.8272c0-28.7744-91.3408-52.48-209.7664-56.2176v-163.4816a3130.5216 3130.5216 0 0 0 102.656-2.7136v69.6832c-9.5232 5.2224-16.2304 14.2848-16.2304 25.1392 0 16.4352 14.6432 29.7984 32.6656 29.7984 18.0736 0 32.7168-13.312 32.7168-29.7984 0-10.8544-6.7072-19.968-16.2816-25.1392v-71.2704c10.24-0.512 20.992-0.8192 30.976-1.4848zM411.392 54.4768C436.5824 48.64 472.1152 44.9536 512 44.9536c39.8848 0 75.4176 3.6352 100.608 9.5232 15.7696 3.6864 25.6 1.536 25.6 3.2768 0 1.792-9.8304-0.3584-25.6 3.328-25.1904 5.888-60.7232 9.5232-100.608 9.5232-39.8848 0-75.4176-3.6352-100.608-9.5232-15.7696-3.6864-25.6-1.536-25.6-3.328s9.8304 0.4096 25.6-3.2768z" fill="#707070" p-id="8280"></path></svg>