<?xml version="1.0" standalone="no"?><!DOCTYPE svg PUBLIC "-//W3C//DTD SVG 1.1//EN" "http://www.w3.org/Graphics/SVG/1.1/DTD/svg11.dtd"><svg t="1741345793342" class="icon" viewBox="0 0 1024 1024" version="1.1" xmlns="http://www.w3.org/2000/svg" p-id="3595" xmlns:xlink="http://www.w3.org/1999/xlink" width="200" height="200"><path d="M900.424398 484.937697L819.785691 413.777455V226.262626c0-12.088889-9.890909-21.979798-21.979798-21.979798h-87.919192c-12.088889 0-21.979798 9.890909-21.979798 21.979798v71.021899l-139.159273-122.811474c-21.019152-18.819879-52.477414-18.819879-73.495273 0l-351.676768 310.464646c-9.06602 8.105374-9.752566 21.979798-1.648484 31.045818l29.397333 32.695596c8.105374 9.06602 21.979798 9.752566 31.047111 1.647192l315.134707-277.76905c8.242424-7.280485 20.743758-7.280485 29.123232 0L841.628438 550.464646c9.067313 8.105374 22.941737 7.417535 31.047111-1.648484l29.397333-32.694303c8.104081-9.204364 7.417535-23.080081-1.648484-31.184162zM512.068519 337.697616C161.627792 646.787879 204.351347 607.087192 204.351347 607.087192V861.090909c0 12.088889 9.890909 21.979798 21.979798 21.979798h571.474748c12.088889 0 21.979798-9.890909 21.979798-21.979798V607.087192s43.822545 40.525576-307.717172-269.389576z" p-id="3596"></path></svg>