<?xml version="1.0" standalone="no"?><!DOCTYPE svg PUBLIC "-//W3C//DTD SVG 1.1//EN" "http://www.w3.org/Graphics/SVG/1.1/DTD/svg11.dtd"><svg t="1743515004085" class="icon" viewBox="0 0 1024 1024" version="1.1" xmlns="http://www.w3.org/2000/svg" p-id="9722" xmlns:xlink="http://www.w3.org/1999/xlink" width="200" height="200"><path d="M182.6 464.3c-22.2 8.1-33 36.2-29.4 60.6 7.2 20.4 22.2 32.1 40.3 32.1 3.6 0 10.9-4.1 14.9-4.1l114.5-48.4c7.2-4.1 18.6-8.1 22.2-20.4l18.6-36.2 51.6 124.9C356.4 682 268.2 863.4 264.5 871.1c-14.9 28.1-3.6 64.7 22.2 80.6 7.2 4.1 18.6 8.1 25.8 8.1 18.6 0 36.7-12.2 48-32.1 0-4.1 58.8-120.8 110.4-221.8l84.6 209.6c7.2 24 26.3 32.1 48 36.2 9.5 1.8 14.9 1.4 25.8 0 25.8-12.2 36.7-48.4 25.8-76.5l-114-290.6c18.6-40.3 18.6-88.7 3.6-124.9-7.2-20.4-18.6-48.4-29.4-76.5l66.1 24L592.2 524c0 24 18.6 40.3 40.3 40.3h3.6c22.2-4.1 40.3-28.1 36.7-52.5l-14.9-149.4c-3.6-16.3-14.9-32.1-29.4-36.2l-173.3-63.8c-33-16.3-70.2-12.2-95.5 16.3l-7.2 8.1c0 4.1-3.6 8.1-7.2 12.2l-62.9 124.5-99.8 40.8z m192.8-225.9c47.5 0 87.4-39.8 87.4-87.4-0.5-47.1-39.8-86.9-87.4-86.9S288 103.9 288 151.5s39.9 86.9 87.4 86.9z" fill="#515151" p-id="9723"></path><path d="M868.8 709.1l-46.2-121.3c-7.7-20.8-31.2-28.5-51.6-20.8l-21.7 8.1c-19.5-43-65.2-60.6-106.4-45.3-41.2 15.8-63.4 59.3-49.8 104.5l-22.2 8.1c-20.4 7.7-29.9 28.1-21.7 48.9l46.2 121.3c7.7 20.8 30.3 34.4 50.2 26.7l200-75.6c20.4-7.5 31.3-33.8 23.2-54.6zM663.3 814.6l-62.5-164.7 15.8-5.9 62.5 164.7-15.8 5.9zM609 628.5c-10.9-37.1 7.7-70.2 40.3-82.4 32.6-12.2 68.3 0 84.6 34.8L609 628.5z m195 132.7l-62.5-164.7 15.8-5.9 62.5 164.7-15.8 5.9z" fill="#515151" p-id="9724"></path></svg>