<?xml version="1.0" standalone="no"?><!DOCTYPE svg PUBLIC "-//W3C//DTD SVG 1.1//EN" "http://www.w3.org/Graphics/SVG/1.1/DTD/svg11.dtd"><svg t="1743514741425" class="icon" viewBox="0 0 1024 1024" version="1.1" xmlns="http://www.w3.org/2000/svg" p-id="3921" xmlns:xlink="http://www.w3.org/1999/xlink" width="200" height="200"><path d="M512 768a384 384 0 1 1 384-384 384 384 0 0 1-384 384z m0-704a320 320 0 1 0 320 320A320 320 0 0 0 512 64z" fill="#515151" p-id="3922"></path><path d="M512 576a192 192 0 1 1 192-192 192 192 0 0 1-192 192z m0-320a128 128 0 1 0 128 128 128 128 0 0 0-128-128z" fill="#515151" p-id="3923"></path><path d="M512 384h-64a64 64 0 0 1 64-64zM879.36 1024H144.64l81.6-203.84 59.52 23.68L239.36 960h545.28l-46.4-116.16 59.52-23.68L879.36 1024z" fill="#515151" p-id="3924"></path></svg>