<?xml version="1.0" standalone="no"?><!DOCTYPE svg PUBLIC "-//W3C//DTD SVG 1.1//EN" "http://www.w3.org/Graphics/SVG/1.1/DTD/svg11.dtd"><svg t="1743514654072" class="icon" viewBox="0 0 1024 1024" version="1.1" xmlns="http://www.w3.org/2000/svg" p-id="2700" xmlns:xlink="http://www.w3.org/1999/xlink" width="200" height="200"><path d="M917.333333 938.666667h-21.333333V96a53.393333 53.393333 0 0 0-53.333333-53.333333H181.333333a53.393333 53.393333 0 0 0-53.333333 53.333333v842.666667h-21.333333a21.333333 21.333333 0 0 0 0 42.666666h810.666666a21.333333 21.333333 0 0 0 0-42.666666z m-661.333333 0V170.666667h512v277.333333a21.333333 21.333333 0 0 0 42.666667 0V149.333333a21.333333 21.333333 0 0 0-21.333334-21.333333H234.666667a21.333333 21.333333 0 0 0-21.333334 21.333333v789.333334h-42.666666V96a10.666667 10.666667 0 0 1 10.666666-10.666667h661.333334a10.666667 10.666667 0 0 1 10.666666 10.666667v842.666667z m554.666667-320v256a21.333333 21.333333 0 0 1-42.666667 0V618.666667a21.333333 21.333333 0 0 1 42.666667 0z m0-85.333334a21.333333 21.333333 0 0 1-21.333334 21.333334H661.333333a21.333333 21.333333 0 0 1 0-42.666667h128a21.333333 21.333333 0 0 1 21.333334 21.333333z" fill="#5C5C66" p-id="2701"></path></svg>