<?xml version="1.0" standalone="no"?><!DOCTYPE svg PUBLIC "-//W3C//DTD SVG 1.1//EN" "http://www.w3.org/Graphics/SVG/1.1/DTD/svg11.dtd"><svg t="1743777860731" class="icon" viewBox="0 0 1024 1024" version="1.1" xmlns="http://www.w3.org/2000/svg" p-id="4719" xmlns:xlink="http://www.w3.org/1999/xlink" width="200" height="200"><path d="M436.906667 592.213333H149.333333V281.6h629.333334V341.333333h64V260.266667a42.666667 42.666667 0 0 0-42.666667-42.666667H128a42.666667 42.666667 0 0 0-42.666667 42.666667v353.28a42.666667 42.666667 0 0 0 42.666667 42.666666h264.533333a259.413333 259.413333 0 0 1-26.453333 87.893334 42.666667 42.666667 0 0 0 0 42.666666 42.666667 42.666667 0 0 0 35.84 20.053334h120.746667a42.666667 42.666667 0 0 0 35.84-20.48 42.666667 42.666667 0 0 0 0-42.666667 259.413333 259.413333 0 0 1-26.453334-87.893333H640v-64h-203.093333z m54.186666 150.186667h-54.186666a329.386667 329.386667 0 0 0 20.053333-85.333333H469.333333a313.173333 313.173333 0 0 0 21.76 85.333333z" fill="#707070" p-id="4720"></path><path d="M902.4 394.666667h-162.56a36.266667 36.266667 0 0 0-35.84 36.266666v290.133334a36.266667 36.266667 0 0 0 35.84 36.266666h162.56a36.266667 36.266667 0 0 0 36.266667-36.266666v-290.133334a36.266667 36.266667 0 0 0-36.266667-36.266666z m-27.733333 298.666666H768v-234.666666h106.666667z" fill="#707070" p-id="4721"></path></svg>