<?xml version="1.0" standalone="no"?><!DOCTYPE svg PUBLIC "-//W3C//DTD SVG 1.1//EN" "http://www.w3.org/Graphics/SVG/1.1/DTD/svg11.dtd"><svg t="1743777939891" class="icon" viewBox="0 0 1024 1024" version="1.1" xmlns="http://www.w3.org/2000/svg" p-id="7084" xmlns:xlink="http://www.w3.org/1999/xlink" width="200" height="200"><path d="M749.433 98c32.572 0 59.195 25.987 59.983 58.55l17.098 707c0.801 33.127-25.405 60.631-58.532 61.432-0.483 0.018-0.967 0.018-1.45 0.018H204.468c-33.138 0-60-26.863-60-60 0-0.484 0-0.967 0.017-1.45l17.098-707c0.788-32.563 27.41-58.55 59.983-58.55h527.866z m38.27 737H183.228l-0.837 34.615V870c0 8.731 6.994 15.83 15.685 15.997l0.315 0.003h574.198c0.136 0 0.271-0.002 0.407-0.005 8.728-0.222 15.646-7.394 15.593-16.087v-0.315L787.704 835z m-33.302-696.558H215.62c-8.579 0-15.61 6.761-15.984 15.294l-0.011 0.321L184.191 795h602.496l-16.29-640.964c-0.221-8.676-7.317-15.594-15.996-15.594zM484.47 275c53.019 0 96 42.98 96 96s-42.981 96-96 96c-53.02 0-96-42.98-96-96s42.98-96 96-96zM484 315c-30.928 0-56 25.072-56 56s25.072 56 56 56 56-25.072 56-56-25.072-56-56-56z" fill="#707070" p-id="7085"></path></svg>