<?xml version="1.0" standalone="no"?><!DOCTYPE svg PUBLIC "-//W3C//DTD SVG 1.1//EN" "http://www.w3.org/Graphics/SVG/1.1/DTD/svg11.dtd"><svg t="1743872447557" class="icon" viewBox="0 0 1024 1024" version="1.1" xmlns="http://www.w3.org/2000/svg" p-id="3205" xmlns:xlink="http://www.w3.org/1999/xlink" width="200" height="200"><path d="M942.933333 876.8H746.666667c6.4-14.933333 10.666667-29.866667 10.666666-49.066667 0-40.533333-42.666667-132.266667-49.066666-142.933333-4.266667-6.4-10.666667-12.8-19.2-12.8s-14.933333 4.266667-19.2 12.8c-4.266667 10.666667-49.066667 100.266667-49.066667 142.933333 0 19.2 4.266667 36.266667 10.666667 49.066667h-51.2c6.4-14.933333 10.666667-29.866667 10.666666-49.066667 0-40.533333-42.666667-132.266667-49.066666-142.933333-4.266667-6.4-10.666667-12.8-19.2-12.8-6.4 0-14.933333 4.266667-19.2 12.8-4.266667 10.666667-49.066667 100.266667-49.066667 142.933333 0 19.2 4.266667 36.266667 10.666667 49.066667h-53.333334c6.4-14.933333 10.666667-29.866667 10.666667-49.066667 0-40.533333-42.666667-132.266667-49.066667-142.933333-4.266667-6.4-10.666667-12.8-19.2-12.8s-14.933333 4.266667-19.2 12.8c-4.266667 10.666667-49.066667 100.266667-49.066666 142.933333 0 19.2 4.266667 36.266667 10.666666 49.066667H96c-12.8 0-21.333333 8.533333-21.333333 21.333333s8.533333 21.333333 21.333333 21.333334h849.066667c12.8 0 21.333333-8.533333 21.333333-21.333334s-10.666667-21.333333-23.466667-21.333333zM689.066667 746.666667c12.8 32 25.6 66.133333 25.6 81.066666 0 29.866667-12.8 46.933333-25.6 46.933334s-25.6-17.066667-25.6-46.933334c2.133333-17.066667 12.8-51.2 25.6-81.066666z m-166.4 0c12.8 32 25.6 66.133333 25.6 81.066666 0 29.866667-12.8 46.933333-25.6 46.933334s-25.6-17.066667-25.6-46.933334c0-17.066667 12.8-51.2 25.6-81.066666z m-168.533334 0c12.8 32 25.6 66.133333 25.6 81.066666 0 29.866667-12.8 46.933333-25.6 46.933334s-25.6-17.066667-25.6-46.933334c0-17.066667 12.8-51.2 25.6-81.066666zM960 405.333333c-12.8 0-21.333333 8.533333-21.333333 21.333334v27.733333h-34.133334v-78.933333-4.266667c-6.4-98.133333-87.466667-174.933333-185.6-174.933333h-174.933333c8.533333-8.533333 14.933333-19.2 14.933333-32 0-23.466667-19.2-42.666667-42.666666-42.666667s-42.666667 19.2-42.666667 42.666667c0 12.8 6.4 23.466667 14.933333 32h-164.266666c-100.266667 0-181.333333 78.933333-185.6 179.2V454.4H100.266667V426.666667c0-12.8-8.533333-21.333333-21.333334-21.333334s-21.333333 10.666667-21.333333 21.333334v49.066666c0 12.8 8.533333 21.333333 21.333333 21.333334h55.466667v134.4c0 12.8 8.533333 21.333333 21.333333 21.333333h725.333334c12.8 0 21.333333-8.533333 21.333333-21.333333v-134.4h55.466667c12.8 0 21.333333-8.533333 21.333333-21.333334V426.666667c2.133333-10.666667-8.533333-21.333333-19.2-21.333334z m-637.866667-166.4h394.666667c70.4 0 128 49.066667 140.8 115.2H181.333333c12.8-66.133333 70.4-115.2 140.8-115.2zM177.066667 610.133333v-206.933333h682.666666v206.933333h-682.666666z" fill="#515151" p-id="3206"></path></svg>