<?xml version="1.0" standalone="no"?><!DOCTYPE svg PUBLIC "-//W3C//DTD SVG 1.1//EN" "http://www.w3.org/Graphics/SVG/1.1/DTD/svg11.dtd"><svg t="1743514939119" class="icon" viewBox="0 0 1024 1024" version="1.1" xmlns="http://www.w3.org/2000/svg" p-id="7300" xmlns:xlink="http://www.w3.org/1999/xlink" width="200" height="200"><path d="M613.839602 115.3401H406.79801a20.785672 20.785672 0 0 1-20.37811-20.37811 20.378109 20.378109 0 0 1 20.37811-20.378109h205.309453a20.378109 20.378109 0 0 1 20.378109 20.378109 20.785672 20.785672 0 0 1-18.64597 20.37811zM511.439602 1021.452736a20.378109 20.378109 0 0 1-20.378109-20.378109v-102.4a19.715821 19.715821 0 0 1 20.378109-20.37811 20.378109 20.378109 0 0 1 20.378109 20.37811v102.4a20.785672 20.785672 0 0 1-20.378109 20.378109z m299.507264-123.746069a18.595025 18.595025 0 0 1-14.213732-6.011543l-72.291343-72.291343a20.378109 20.378109 0 0 1 28.478408-28.478408l72.800796 72.291343a20.378109 20.378109 0 0 1 0 28.478408 19.715821 19.715821 0 0 1-14.825075 6.011543z m124.81592-299.507264h-102.4a19.715821 19.715821 0 0 1-20.378109-20.378109 20.378109 20.378109 0 0 1 20.378109-20.37811h102.4a20.378109 20.378109 0 0 1 20.37811 20.37811 19.715821 19.715821 0 0 1-20.37811 20.378109zM213.20597 897.706667a18.034627 18.034627 0 0 1-14.213731-6.011543 19.715821 19.715821 0 0 1 0-28.478408l72.291343-72.291343a20.378109 20.378109 0 1 1 28.478408 28.478408l-72.291343 72.291343a18.64597 18.64597 0 0 1-14.264677 6.011543z m-22.466866-299.507264H88.339104a20.378109 20.378109 0 0 1-20.378109-20.378109 20.785672 20.785672 0 0 1 20.378109-20.37811h102.4a20.378109 20.378109 0 0 1 20.37811 20.37811 19.715821 19.715821 0 0 1-20.37811 20.378109z m423.202389-555.303483H406.79801a20.785672 20.785672 0 0 1-20.37811-20.378109 20.378109 20.378109 0 0 1 20.37811-20.37811h205.309453a20.378109 20.378109 0 0 1 20.378109 20.37811 20.785672 20.785672 0 0 1-18.64597 20.530945z" fill="#515151" opacity=".8" p-id="7301"></path><path d="M511.439602 850.633234H493.35403a276.48 276.48 0 0 1-135.769154-505.886567 12.583483 12.583483 0 0 0 5.451144-10.189055v-139.080597a45.443184 45.443184 0 0 1 45.443184-45.850746h205.309453a45.850746 45.850746 0 0 1 45.850746 45.850746v138.520199a11.513632 11.513632 0 0 0 5.451144 10.189055 276.785672 276.785672 0 0 1-153.854726 506.446965zM406.848955 189.82209a5.094527 5.094527 0 0 0-5.094527 5.451144v138.520199a54.766169 54.766169 0 0 1-23.536717 44.322388 234.857711 234.857711 0 0 0-104.590646 200.928159 235.214328 235.214328 0 1 0 365.736119-200.928159 54.766169 54.766169 0 0 1-24.097114-44.373333V195.222289a5.094527 5.094527 0 0 0-5.094528-5.451145z" fill="#515151" opacity=".8" p-id="7302"></path></svg>