<?xml version="1.0" standalone="no"?><!DOCTYPE svg PUBLIC "-//W3C//DTD SVG 1.1//EN" "http://www.w3.org/Graphics/SVG/1.1/DTD/svg11.dtd"><svg t="1743515096270" class="icon" viewBox="0 0 1024 1024" version="1.1" xmlns="http://www.w3.org/2000/svg" p-id="14042" xmlns:xlink="http://www.w3.org/1999/xlink" width="200" height="200"><path d="M863.475712 157.964288C768.909312 63.397888 643.176448 11.317248 509.44 11.317248S249.970688 63.397888 155.404288 157.964288C60.837888 252.530688 8.757248 378.263552 8.757248 512s52.08064 259.469312 146.64704 354.035712c94.5664 94.5664 220.297216 146.644992 354.035712 146.644992 133.736448 0 259.469312-52.08064 354.035712-146.644992S1010.122752 645.736448 1010.122752 512s-52.08064-259.469312-146.64704-354.035712zM509.44 971.722752C255.9488 971.722752 49.717248 765.4912 49.717248 512c0-253.4912 206.231552-459.722752 459.722752-459.722752 253.4912 0 459.722752 206.231552 459.722752 459.722752 0 253.4912-206.231552 459.722752-459.722752 459.722752z" fill="#515151" p-id="14043"></path><path d="M189.46048 459.689984h104.620032v104.620032H189.46048zM724.287488 459.689984h105.13408v104.620032h-105.13408zM466.343936 459.689984h104.62208v104.620032h-104.62208z" fill="#515151" p-id="14044"></path></svg>