<?xml version="1.0" standalone="no"?><!DOCTYPE svg PUBLIC "-//W3C//DTD SVG 1.1//EN" "http://www.w3.org/Graphics/SVG/1.1/DTD/svg11.dtd"><svg t="1743514894379" class="icon" viewBox="0 0 1024 1024" version="1.1" xmlns="http://www.w3.org/2000/svg" p-id="5135" xmlns:xlink="http://www.w3.org/1999/xlink" width="200" height="200"><path d="M527.958442 731.096104v-307.2c0-10.971429-8.976623-19.948052-19.948052-19.948052s-19.948052 8.976623-19.948052 19.948052v307.2c-18.285714 7.646753-31.251948 25.932468-31.251948 47.21039 0 28.25974 22.94026 51.2 51.2 51.2s51.2-22.94026 51.2-51.2c0-21.277922-12.966234-39.563636-31.251948-47.21039z" p-id="5136" fill="#515151"></path><path d="M597.444156 657.288312V176.207792c0-42.223377-34.244156-76.467532-76.467533-76.467532H495.376623c-42.223377 0-76.467532 34.244156-76.467532 76.467532v481.08052c-35.906494 27.262338-59.179221 70.150649-59.179221 118.690909 0 81.787013 66.493506 148.280519 148.28052 148.280519s148.280519-66.493506 148.280519-148.280519c0.332468-48.54026-22.94026-91.428571-58.846753-118.690909zM508.01039 891.012987c-63.501299 0-115.033766-51.532468-115.033767-115.033766 0-27.927273 9.974026-53.194805 26.264935-73.142857 8.976623-10.971429 20.280519-20.280519 32.914286-27.262338V176.207792c0-23.937662 19.283117-43.220779 43.220779-43.220779h25.6c23.937662 0 43.220779 19.283117 43.22078 43.220779v25.932468h-29.922078c-4.654545 0-8.644156 3.98961-8.644156 8.644156s3.98961 8.644156 8.644156 8.644155h29.922078v46.877923h-29.922078c-4.654545 0-8.644156 3.98961-8.644156 8.644155s3.98961 8.644156 8.644156 8.644156h29.922078v46.877922H535.272727c-4.654545 0-8.644156 3.98961-8.644156 8.644156s3.98961 8.644156 8.644156 8.644156h28.924676v327.480519c12.633766 6.981818 23.605195 16.290909 32.914285 27.262338 16.290909 19.948052 26.264935 45.548052 26.264935 73.142857 0 63.833766-51.864935 115.366234-115.366233 115.366234z" p-id="5137" fill="#515151"></path></svg>